<svg xmlns="http://www.w3.org/2000/svg" id="Layer_2" data-name="Layer 2" viewBox="0 0 20 20" fill='#3B82F6'><g id="Layer_1-2" data-name="Layer 1"><g><path d="M10,20C2.62,20,0,17.38,0,10S2.62,0,10,0s10,2.62,10,10c0,6.19-1.95,9.02-6.72,9.78-.4,.06-.79-.21-.86-.62-.06-.41,.21-.79,.62-.86,4.03-.64,5.45-2.81,5.45-8.29,0-6.51-1.99-8.5-8.5-8.5S1.5,3.49,1.5,10s1.99,8.5,8.5,8.5c.41,0,.75,.34,.75,.75s-.34,.75-.75,.75Z"></path><path d="M11.44,14.22c-.15,0-.29-.04-.42-.13-1.42-.98-3.81-2.81-3.81-4.09s2.38-3.11,3.81-4.09c.34-.23,.81-.15,1.04,.19,.23,.34,.15,.81-.19,1.04-1.58,1.09-3.06,2.44-3.16,2.88,.1,.39,1.57,1.73,3.16,2.82,.34,.23,.43,.7,.19,1.04-.15,.21-.38,.33-.62,.33Z"></path></g></g></svg>