<svg xmlns="http://www.w3.org/2000/svg" id="Layer_2"  width="16" fill="#8F9AAB" data-name="Layer 2" viewBox="0 0 20.49 18.47"><g id="Layer_1-2" data-name="Layer 1"><g><path d="M10.25,18.47c-1.57,0-5.23-1.69-7.72-4.75-.26-.32-.21-.79,.11-1.05,.32-.26,.79-.22,1.06,.11,2.37,2.9,5.69,4.19,6.56,4.19,1.19,0,6.8-2.43,8.41-7.55,.93-2.91-.04-6.68-3.22-7.71-1.45-.47-3.5-.23-4.56,1.39-.14,.21-.36,.33-.61,.34-.24,0-.48-.11-.62-.31-1.17-1.61-3.2-1.87-4.59-1.42C1.87,2.74,.9,6.51,1.83,9.42c.13,.39-.09,.82-.49,.94-.39,.13-.82-.09-.94-.49C-.75,6.28,.53,1.59,4.59,.29c2.03-.66,4.19-.16,5.64,1.24C11.8-.07,14.17-.27,15.9,.29c4.07,1.31,5.34,6,4.19,9.59-1.75,5.58-7.77,8.6-9.84,8.6Z"></path><path d="M15.9,7.94h-.03c-.41-.01-.74-.36-.72-.78,.03-.95-.43-1.57-1.24-1.65-.41-.04-.71-.41-.67-.82,.04-.41,.42-.71,.82-.67,1.61,.17,2.65,1.45,2.59,3.19-.01,.41-.35,.72-.75,.72Z"></path></g></g></svg>