<svg xmlns="http://www.w3.org/2000/svg" id="Layer_2" width="16" stroke="#284258" data-name="Layer 2" viewBox="0 0 19.5 19.51"><g id="Layer_1-2" data-name="Layer 1"><g><path d="M14.33,19.51c-.97,0-1.89-.61-2.68-1.13-.67-.44-1.36-.9-1.9-.9-.41,0-.75-.34-.75-.75s.34-.75,.75-.75c1,0,1.88,.58,2.73,1.15,1.21,.8,1.8,1.11,2.36,.69,.6-.46,.5-1.19,.12-2.64-.24-.94-.49-1.92-.29-2.85,.24-1.08,1.13-1.82,1.92-2.47,1.06-.87,1.54-1.36,1.37-2.09-.15-.66-.86-.77-2.33-.84-1.11-.05-2.26-.11-2.98-.86-.29-.3-.28-.77,.02-1.06,.3-.29,.77-.28,1.06,.02,.31,.32,1.19,.36,1.98,.4,1.39,.07,3.29,.16,3.72,1.99,.4,1.71-.86,2.75-1.88,3.59-.66,.54-1.28,1.05-1.41,1.63-.13,.58,.08,1.38,.27,2.15,.35,1.38,.79,3.1-.67,4.21-.47,.36-.95,.5-1.41,.5Z"></path><path d="M5.18,19.5c-.46,0-.94-.14-1.42-.5-1.47-1.11-1.03-2.83-.67-4.21,.2-.77,.4-1.57,.27-2.15-.13-.58-.75-1.09-1.41-1.63C.94,10.18-.33,9.13,.08,7.42c.43-1.83,2.33-1.92,3.72-1.99,.78-.04,1.67-.08,1.98-.4,.35-.36,.64-1.09,.92-1.81,.57-1.44,1.27-3.22,3.06-3.22s2.47,1.77,2.82,2.62c.16,.38-.02,.82-.4,.98-.38,.16-.82-.02-.98-.4-.52-1.24-.91-1.7-1.44-1.7-.71,0-1.12,.9-1.67,2.27-.33,.85-.68,1.72-1.24,2.3-.72,.74-1.87,.8-2.98,.86-1.47,.07-2.18,.18-2.33,.84-.17,.72,.31,1.22,1.37,2.09,.79,.65,1.68,1.39,1.92,2.47,.21,.93-.04,1.9-.29,2.85-.37,1.45-.48,2.18,.12,2.64,.47,.35,.95,.23,2.09-.51,.35-.23,.81-.13,1.04,.22,.23,.35,.13,.81-.22,1.04-.59,.39-1.45,.95-2.39,.95Z"></path></g></g></svg>