<svg xmlns="http://www.w3.org/2000/svg" id="Layer_2" data-name="Layer 2" viewBox="0 0 235.36 206.19"><defs><style>      .cls-1 {        fill: #60758d;      }    </style></defs><g id="Layer_1-2" data-name="Layer 1"><g><rect class="cls-1" x="149.97" y="8.1" width="43.2" height="15.84" rx="7.92" ry="7.92"></rect><path class="cls-1" d="M235.33,43.38c-.24-4.32-.96-9.99-2.16-17.01-.7-4.08-1.42-7.91-2.16-11.49-.83-4-4.83-6.48-8.77-5.44h0c-3.64,.96-5.9,4.58-5.16,8.26s1.44,7.36,2.14,11.28c1.14,6.36,1.83,11.28,2.07,14.76,.24,4.32-1.05,7.68-3.87,10.08-2.82,2.4-7.71,3.6-14.67,3.6H67.5v-18c0-7.68-1.38-14.49-4.14-20.43s-6.72-10.59-11.88-13.95C46.32,1.68,40.32,0,33.48,0c-6.48,0-12.27,1.74-17.37,5.22-5.1,3.48-9.06,8.22-11.88,14.22S0,32.1,0,39.42c0,10.8,3.09,19.2,9.27,25.2s14.31,9,24.39,9h19.44v1.08c0,2.88-1.14,5.16-3.42,6.84-2.28,1.68-5.64,3.12-10.08,4.32-4.44,1.2-11.88,2.88-22.32,5.04l-.24,.05c-4.31,.86-7.07,5.1-6.11,9.39h0c.93,4.16,5.01,6.81,9.18,5.98,1.7-.34,3.39-.68,5.09-1.02,11.28-2.28,19.83-4.56,25.65-6.84,5.82-2.28,10.05-5.25,12.69-8.91,2.64-3.66,3.96-8.61,3.96-14.85v-1.08H202.75c7.32,0,13.47-1.44,18.45-4.32,4.98-2.88,8.64-6.63,10.98-11.25,2.34-4.62,3.39-9.51,3.15-14.67ZM53.46,57.42h-19.8c-6.84,0-11.82-1.35-14.94-4.05-3.12-2.7-4.68-7.35-4.68-13.95,0-7.08,1.71-12.75,5.13-17.01,3.42-4.26,8.19-6.39,14.31-6.39,6.6,0,11.58,2.07,14.94,6.21,3.36,4.14,5.04,9.87,5.04,17.19v18Z"></path><rect class="cls-1" x="44.46" y="138.33" width="18" height="18" rx="9" ry="9"></rect><path class="cls-1" d="M229.86,141.66c-2.64-6.18-6.36-11.09-11.16-14.76-4.8-3.66-10.32-5.49-16.56-5.49-7.8,0-14.46,2.68-19.98,8.01-5.52,5.34-9.6,12.69-12.24,22.05l-5.76,20.7c-.6,2.52-1.77,4.41-3.51,5.67s-4.05,1.89-6.93,1.89c-5.4,0-9.27-.56-11.61-1.71-2.34-1.14-3.9-3.15-4.68-6.03-.78-2.88-1.17-7.56-1.17-14.04l-.18-46.26c0-4.56-.78-8.57-2.34-12.06-1.56-3.48-4.02-6.21-7.38-8.19-3.36-1.98-7.62-2.97-12.78-2.97h-5.94c-5.28,0-9.63,.99-13.05,2.97-3.42,1.98-5.88,4.68-7.38,8.1-1.5,3.42-2.25,7.47-2.25,12.15l.18,50.22c0,6.96-.96,12.45-2.88,16.47-1.92,4.03-5.16,6.96-9.72,8.82-4.56,1.87-10.92,2.79-19.08,2.79h-2.62c-7.44,0-13.56-1.55-18.36-4.68-4.8-3.12-8.34-7.4-10.62-12.87-2.28-5.46-3.42-11.72-3.42-18.81,0-2.51,.39-5.92,.87-9.16,.71-4.82-3.51-8.91-8.31-8.07h0c-3.08,.54-5.43,3.02-5.85,6.12-.5,3.65-.75,7.35-.75,11.11,0,9.12,1.77,17.71,5.31,25.74,3.54,8.04,8.79,14.52,15.75,19.44,6.96,4.93,15.42,7.38,25.38,7.38h2.62c10.68,0,19.41-1.8,26.19-5.4,6.78-3.6,11.76-8.7,14.94-15.3,3.18-6.59,4.71-14.46,4.59-23.58l-.18-50.22c0-2.76,.57-4.61,1.71-5.58,1.14-.96,3.45-1.44,6.93-1.44h5.94c3.24,0,5.46,.54,6.66,1.62,1.2,1.08,1.8,2.88,1.8,5.4l.18,46.26c0,8.17,.93,15.01,2.79,20.52,1.86,5.52,5.07,9.81,9.63,12.87s10.92,4.59,19.08,4.59c3.48,0,6.84-.78,10.08-2.34,3.24-1.55,6.06-3.71,8.46-6.48l.72,.36c9.36,4.8,16.32,8.08,20.88,9.81,4.56,1.74,9.12,2.61,13.68,2.61s8.67-1.28,12.69-3.87c4.02-2.58,7.29-6.72,9.81-12.42,2.52-5.69,3.78-12.98,3.78-21.87,0-7.2-1.32-13.88-3.96-20.07Zm-13.14,37.44c-2.04,3.06-5.1,4.59-9.18,4.59-3.12,0-6.42-.69-9.9-2.07-3.48-1.37-9.3-4.11-17.46-8.19l-1.26-.72,4.68-16.92c1.68-6.12,4.11-10.68,7.29-13.68,3.18-2.99,6.93-4.5,11.25-4.5,5.76,0,10.14,2.14,13.14,6.39,3,4.26,4.5,10.17,4.5,17.73,0,8.53-1.02,14.31-3.06,17.37Z"></path></g></g></svg>