<svg xmlns="http://www.w3.org/2000/svg" id="Layer_2" data-name="Layer 2" viewBox="0 0 43.98 56.38"><defs><style>      .cls-1 {        fill: #fff;      }      .cls-2 {        fill: #ffc002;      }    </style></defs><g id="Layer_1-2" data-name="Layer 1"><path class="cls-1" d="M21.99,56.38c-4.91,0-9.65-1.02-14.1-3.03-2.55-1.15-4.44-3.35-5.19-6.04-.75-2.69-.28-5.55,1.29-7.85,.6-.87,1.33-1.63,2.15-2.24C2.34,33.27,0,27.9,0,21.99,0,9.87,9.87,0,21.99,0c2.71,0,5.33,.48,7.81,1.43,1.48-.94,3.18-1.43,4.93-1.43,5.1,0,9.25,4.15,9.25,9.25v6.07c0,.75-.17,1.47-.47,2.12,.14,.67,.25,1.35,.33,2.03,.1,.38,.15,.79,.15,1.2v1.31c0,5.91-2.34,11.28-6.14,15.23,.83,.62,1.55,1.37,2.15,2.24,1.58,2.31,2.05,5.17,1.29,7.86-.75,2.69-2.65,4.89-5.19,6.04-4.45,2.01-9.19,3.03-14.1,3.03Z"></path><path class="cls-2" d="M38.98,9.25v6.07c-1.53-3.66-3.79-6.91-6.62-9.6,.68-.46,1.49-.73,2.37-.73,2.34,0,4.25,1.9,4.25,4.25Zm-3.12,33.04c-1.2-1.76-3.49-2.42-5.43-1.54-2.58,1.17-5.44,1.81-8.44,1.81s-5.86-.65-8.44-1.81c-1.94-.88-4.23-.22-5.43,1.54h0c-1.55,2.27-.67,5.38,1.83,6.51,3.68,1.66,7.75,2.58,12.04,2.58s8.37-.92,12.04-2.58c2.5-1.13,3.38-4.25,1.83-6.51h0Zm3.09-21.32c.02,.34,.03,.68,.03,1.03v-1.31c0,.1-.01,.19-.03,.29ZM29.61,6.8c-.15-.05-.31-.13-.48-.23,.17,.07,.33,.15,.48,.23Zm9.37,15.19c0,9.38-7.61,16.99-16.99,16.99S5,31.38,5,21.99,12.61,5,21.99,5c2.5,0,4.88,.54,7.02,1.52,.03,0,.07,.02,.09,.04,.01,0,.02,0,.03,.01,.17,.1,.33,.18,.48,.23,.43,.21,.85,.44,1.25,.69,.37,.22,.72,.46,1.07,.72,4.02,2.89,6.71,7.49,7.02,12.75,.02,.34,.03,.68,.03,1.03Zm-8.5,0c0-4.69-3.8-8.49-8.49-8.49s-8.5,3.8-8.5,8.49,3.8,8.5,8.5,8.5,8.49-3.8,8.49-8.5Z"></path></g></svg>