<svg xmlns="http://www.w3.org/2000/svg" id="Layer_2" data-name="Layer 2" viewBox="0 0 177.57 65.41"><defs><style>      .cls-1 {        fill: #ffc100;      }      .cls-2 {        fill: #8f9aab;      }      .cls-3 {        fill: #bac0cb;      }    </style></defs><g id="Layer_1-2" data-name="Layer 1"><g><g><path class="cls-1" d="M177.57,5.99V14.56c-2.15-5.16-5.34-9.75-9.34-13.53,.96-.65,2.1-1.02,3.34-1.02,3.31,0,5.99,2.69,5.99,5.99Z"></path><path class="cls-1" d="M173.17,52.58c2.19,3.2,.95,7.59-2.58,9.19-5.19,2.34-10.94,3.64-16.98,3.64s-11.8-1.3-16.98-3.64c-3.53-1.59-4.77-5.99-2.58-9.19h0c1.69-2.48,4.92-3.41,7.66-2.17,3.63,1.64,7.66,2.56,11.9,2.56s8.27-.91,11.9-2.56c2.74-1.24,5.97-.3,7.66,2.17h0Z"></path><path class="cls-1" d="M177.57,22.11v1.85c0-.49-.02-.97-.05-1.45,.03-.13,.05-.26,.05-.4Z"></path><path class="cls-1" d="M163.67,2.22c.23,.14,.46,.25,.68,.33-.22-.12-.44-.23-.68-.33Z"></path><path class="cls-1" d="M177.52,22.51c-.44-7.41-4.24-13.9-9.9-17.98-.49-.37-.99-.7-1.5-1.01-.57-.36-1.16-.69-1.77-.98-.22-.08-.44-.19-.68-.33,0,0-.02-.02-.04-.02-.04-.03-.08-.05-.13-.06-3.01-1.38-6.37-2.14-9.9-2.14-13.23,0-23.96,10.73-23.96,23.96s10.73,23.96,23.96,23.96,23.96-10.73,23.96-23.96c0-.49-.02-.97-.05-1.45Zm-23.91,13.43c-6.62,0-11.98-5.36-11.98-11.98s5.36-11.97,11.98-11.97,11.97,5.36,11.97,11.97-5.36,11.98-11.97,11.98Z"></path></g><g><g><path class="cls-2" d="M92.32,10.64c-1.04-1.52-.45-3.62,1.23-4.38,2.47-1.11,5.21-1.74,8.09-1.74s5.62,.62,8.09,1.74c1.68,.76,2.27,2.85,1.23,4.38h0c-.81,1.18-2.35,1.63-3.65,1.04-1.73-.78-3.65-1.22-5.67-1.22s-3.94,.44-5.67,1.22c-1.3,.59-2.84,.14-3.65-1.04h0Z"></path><g><path class="cls-2" d="M91,30.89c.35-.38,.8-.96,.28-1.81-.34-.56,1.5-.18,1.49-.16s-.13,2.06-.13,2.06l-1.65-.08Z"></path><path class="cls-2" d="M93.08,27.13h5.71v9.45c0,1.09-.88,1.97-1.97,1.97h-1.77c-1.09,0-1.97-.88-1.97-1.97v-9.45h0Z" transform="translate(128.78 -63.09) rotate(90)"></path><path class="cls-2" d="M96.89,35.7c-2.4-1-4.42-2.74-5.78-4.94,.32-.38,.63-.92,.17-1.68-.34-.56,1.5-.18,1.49-.16,0,0-.04,.57-.07,1.1,.12-.02,.25-.03,.38-.03h6.19c.73,.31,1.53,.47,2.38,.47v5.23h-4.75Z"></path><path class="cls-2" d="M101.64,18.57c3.15,0,5.71,2.56,5.71,5.71h5.71c0-6.31-5.11-11.42-11.42-11.42v5.71Z"></path><path class="cls-2" d="M113.06,24.28c0,6.31-5.11,11.42-11.42,11.42s-11.42-5.11-11.42-11.42,5.11-11.42,11.42-11.42v5.71c-3.15,0-5.71,2.56-5.71,5.71s2.56,5.71,5.71,5.71,5.71-2.56,5.71-5.71h5.71Z"></path></g></g><g><g><path class="cls-2" d="M76.91,30.89c-.35-.38-.8-.96-.28-1.81,.34-.56-1.5-.18-1.49-.16s.13,2.06,.13,2.06l1.65-.08Z"></path><path class="cls-2" d="M71.1,27.13h1.77c1.09,0,1.97,.88,1.97,1.97v9.45h-5.71v-9.45c0-1.09,.88-1.97,1.97-1.97Z" transform="translate(104.82 -39.14) rotate(90)"></path><path class="cls-2" d="M71.02,35.7c2.4-1,4.42-2.74,5.78-4.94-.32-.38-.63-.92-.17-1.68,.34-.56-1.5-.18-1.49-.16,0,0,.04,.57,.07,1.1-.12-.02-.25-.03-.38-.03h-6.19c-.73,.31-1.53,.47-2.38,.47v5.23h4.75Z"></path></g><path class="cls-2" d="M55.62,30.89c.35-.38,.8-.96,.28-1.81-.34-.56,1.5-.18,1.49-.16s-.13,2.06-.13,2.06l-1.65-.08Z"></path><path class="cls-2" d="M57.71,27.13h5.71v9.45c0,1.09-.88,1.97-1.97,1.97h-1.77c-1.09,0-1.97-.88-1.97-1.97v-9.45h0Z" transform="translate(93.4 -27.72) rotate(90)"></path><path class="cls-2" d="M61.51,35.7c-2.4-1-4.42-2.74-5.78-4.94,.32-.38,.63-.92,.17-1.68-.34-.56,1.5-.18,1.49-.16,0,0-.04,.57-.07,1.1,.12-.02,.25-.03,.38-.03h6.19c.73,.31,1.53,.47,2.38,.47v5.23h-4.75Z"></path><path class="cls-2" d="M66.27,18.57c3.15,0,5.71,2.56,5.71,5.71h5.71c0-6.31-5.11-11.42-11.42-11.42v5.71Z"></path><path class="cls-2" d="M77.69,24.28c0,6.31-5.11,11.42-11.42,11.42s-11.42-5.11-11.42-11.42,5.11-11.42,11.42-11.42v5.71c-3.15,0-5.71,2.56-5.71,5.71s2.56,5.71,5.71,5.71,5.71-2.56,5.71-5.71h5.71Z"></path></g><g><path class="cls-2" d="M2.09,30.89c.35-.38,.8-.96,.28-1.81-.34-.56,1.5-.18,1.49-.16s-.13,2.06-.13,2.06l-1.65-.08Z"></path><path class="cls-2" d="M4.17,27.13h5.71v9.45c0,1.09-.88,1.97-1.97,1.97h-1.77c-1.09,0-1.97-.88-1.97-1.97v-9.45h0Z" transform="translate(39.87 25.81) rotate(90)"></path><path class="cls-2" d="M7.98,35.7c-2.4-1-4.42-2.74-5.78-4.94,.32-.38,.63-.92,.17-1.68-.34-.56,1.5-.18,1.49-.16,0,0-.04,.57-.07,1.1,.12-.02,.25-.03,.38-.03h6.19c.73,.31,1.53,.47,2.38,.47v5.23H7.98Z"></path><path class="cls-2" d="M12.74,18.57c3.15,0,5.71,2.56,5.71,5.71h5.71c0-6.31-5.11-11.42-11.42-11.42v5.71Z"></path><path class="cls-2" d="M24.15,24.28c0,6.31-5.11,11.42-11.42,11.42S1.32,30.59,1.32,24.28,6.43,12.86,12.74,12.86v5.71c-3.15,0-5.71,2.56-5.71,5.71s2.56,5.71,5.71,5.71,5.71-2.56,5.71-5.71h5.71Z"></path></g><rect class="cls-2" x="81.07" y="13.63" width="5.71" height="22.06" rx="2.85" ry="2.85"></rect><g><path class="cls-2" d="M46.06,34.92c-.38-.35-.96-.8-1.81-.28-.56,.34-.18-1.5-.16-1.49s2.06,.13,2.06,.13l-.08,1.65Z"></path><path class="cls-2" d="M48.02,40.77h0c-1.58,0-2.85-1.28-2.85-2.85v-8.56l5.71-5.08v13.64c0,1.58-1.28,2.85-2.85,2.85Z"></path><path class="cls-2" d="M50.87,29.03c-1,2.4-2.74,4.42-4.94,5.78-.38-.32-.92-.63-1.68-.17-.56,.34-.18-1.5-.16-1.49,0,0,.57,.04,1.1,.07-.02-.12-.03-.25-.03-.38v-6.19c.31-.73,.47-1.53,.47-2.38h5.23v4.75Z"></path><path class="cls-2" d="M39.45,18.57c-3.15,0-5.71,2.56-5.71,5.71h-5.71c0-6.31,5.11-11.42,11.42-11.42v5.71Z"></path><path class="cls-2" d="M28.04,24.28c0,6.31,5.11,11.42,11.42,11.42s11.42-5.11,11.42-11.42-5.11-11.42-11.42-11.42v5.71c3.15,0,5.71,2.56,5.71,5.71s-2.56,5.71-5.71,5.71-5.71-2.56-5.71-5.71h-5.71Z"></path></g></g><g><path class="cls-3" d="M6.11,58.58c-2.33,0-3.94-.62-4.81-1.86-.87-1.24-1.3-3.22-1.3-5.92s.46-4.66,1.37-5.85c.91-1.2,2.45-1.79,4.62-1.79,1.37,0,2.84,.15,4.42,.45l.79,.15-.09,2.35c-1.75-.19-3.19-.29-4.31-.29s-1.91,.13-2.36,.4c-.45,.27-.78,.75-1,1.46-.21,.71-.32,1.92-.32,3.64s.21,2.92,.63,3.61c.42,.69,1.3,1.03,2.64,1.03l1.81-.09v-2.9h-1.36v-2.62h4.35v7.74c-2.09,.33-3.79,.5-5.08,.5Z"></path><path class="cls-3" d="M13.78,58.32v-15.36h2.94v4.92c1.01-.52,1.91-.78,2.72-.78,1.47,0,2.48,.43,3.03,1.29,.55,.86,.83,2.19,.83,3.99v5.94h-2.94v-5.88c0-.92-.11-1.6-.32-2.04-.22-.45-.66-.67-1.32-.67-.56,0-1.13,.08-1.71,.26l-.29,.09v8.25h-2.94Z"></path><path class="cls-3" d="M28.59,58.58c-2.27,0-3.41-1.2-3.41-3.59,0-1.17,.31-2,.94-2.49,.63-.49,1.6-.78,2.9-.86l2.34-.18v-.68c0-.45-.1-.76-.3-.94-.2-.17-.53-.26-1-.26l-4.12,.18-.09-2.04c1.57-.42,3.06-.63,4.47-.63s2.42,.29,3.05,.88c.62,.58,.94,1.52,.94,2.81v4.56c.03,.35,.09,.6,.17,.74s.27,.24,.55,.3l-.09,2.2c-.74,0-1.34-.05-1.79-.15s-.9-.3-1.35-.6c-1.05,.5-2.12,.75-3.21,.75Zm.63-2.38c.55,0,1.16-.09,1.81-.26l.33-.09v-2.35l-1.99,.18c-.82,.07-1.24,.51-1.24,1.31s.36,1.21,1.09,1.21Z"></path><path class="cls-3" d="M37.25,58.32v-15.36h2.94v15.36h-2.94Z"></path><path class="cls-3" d="M45.73,58.58c-2.27,0-3.41-1.2-3.41-3.59,0-1.17,.31-2,.94-2.49,.63-.49,1.6-.78,2.9-.86l2.34-.18v-.68c0-.45-.1-.76-.3-.94-.2-.17-.53-.26-1-.26l-4.12,.18-.09-2.04c1.57-.42,3.06-.63,4.47-.63s2.42,.29,3.05,.88c.62,.58,.94,1.52,.94,2.81v4.56c.03,.35,.09,.6,.17,.74,.09,.14,.27,.24,.55,.3l-.09,2.2c-.74,0-1.34-.05-1.79-.15-.45-.1-.9-.3-1.35-.6-1.05,.5-2.12,.75-3.21,.75Zm.63-2.38c.55,0,1.16-.09,1.81-.26l.33-.09v-2.35l-1.99,.18c-.83,.07-1.24,.51-1.24,1.31s.36,1.21,1.09,1.21Z"></path><path class="cls-3" d="M54.25,58.32v-10.97h2.93v.62c1.01-.58,1.87-.88,2.58-.88,1.19,0,2.1,.34,2.75,1.03,1.35-.68,2.57-1.03,3.68-1.03,1.45,0,2.45,.42,3.02,1.26s.84,2.18,.84,4.02v5.94h-2.94v-5.85c0-.94-.1-1.63-.3-2.08-.2-.45-.61-.67-1.24-.67-.46,0-1.03,.1-1.71,.3l-.33,.12c.06,1.1,.09,1.93,.09,2.49v5.69h-2.94v-5.64c0-1.08-.1-1.84-.29-2.29-.19-.45-.61-.67-1.25-.67-.56,0-1.13,.1-1.69,.3l-.26,.09v8.21h-2.94Z"></path><path class="cls-3" d="M72.09,52.81c0-1.81,.39-3.22,1.16-4.22,.77-1,2.07-1.49,3.88-1.49s3.11,.5,3.88,1.5,1.16,2.41,1.16,4.22c0,3.84-1.68,5.76-5.05,5.76s-5.05-1.92-5.05-5.76Zm3.44,2.48c.3,.53,.84,.79,1.62,.79s1.31-.26,1.61-.79c.3-.53,.44-1.35,.44-2.48s-.15-1.95-.44-2.46c-.3-.51-.83-.77-1.61-.77s-1.31,.26-1.62,.77c-.3,.51-.45,1.33-.45,2.46s.15,1.95,.45,2.48Z"></path><path class="cls-3" d="M83.77,52.81c0-1.81,.39-3.22,1.16-4.22,.77-1,2.07-1.49,3.88-1.49s3.11,.5,3.88,1.5,1.16,2.41,1.16,4.22c0,3.84-1.68,5.76-5.05,5.76s-5.05-1.92-5.05-5.76Zm3.44,2.48c.3,.53,.84,.79,1.62,.79s1.31-.26,1.61-.79c.3-.53,.44-1.35,.44-2.48s-.15-1.95-.44-2.46c-.3-.51-.83-.77-1.61-.77s-1.31,.26-1.62,.77c-.3,.51-.45,1.33-.45,2.46s.15,1.95,.45,2.48Z"></path><path class="cls-3" d="M96.02,58.32v-10.97h2.93v.62c1-.58,1.87-.88,2.58-.88,1.19,0,2.1,.34,2.75,1.03,1.35-.68,2.58-1.03,3.68-1.03,1.45,0,2.45,.42,3.02,1.26s.84,2.18,.84,4.02v5.94h-2.94v-5.85c0-.94-.1-1.63-.3-2.08-.2-.45-.61-.67-1.24-.67-.46,0-1.03,.1-1.71,.3l-.33,.12c.06,1.1,.09,1.93,.09,2.49v5.69h-2.94v-5.64c0-1.08-.1-1.84-.29-2.29-.19-.45-.61-.67-1.25-.67-.56,0-1.13,.1-1.69,.3l-.26,.09v8.21h-2.94Z"></path></g></g></g></svg>