<svg id="Layer_1" data-name="Layer 1" xmlns="http://www.w3.org/2000/svg" viewBox="0 0 2031 1092"><defs><style>.cls-1{fill:#fff;}.cls-2{fill:#61dafb;}.cls-3,.cls-4{fill:none;stroke:#61dafb;stroke-width:4.82px;}.cls-5{fill:#f7df1e;}.cls-6{fill:#ffc100;}.cls-7{fill:#8f9aab;}.cls-8{fill:#bac0cb;}.cls-9{fill:#07b6d5;}.cls-10{fill:#0080ff;}.cls-11{fill:#5a29e4;}.cls-12{fill:#1d8eff;}.cls-13{fill:#f44250;}.cls-14{fill:#121212;}.cls-15{fill:#f05133;}</style></defs><rect class="cls-1" x="117" y="830" width="218" height="218" rx="45.54"/><circle class="cls-2" cx="226" cy="939" r="9.63"/><ellipse class="cls-3" cx="226" cy="939" rx="51.67" ry="19.73"/><ellipse class="cls-4" cx="226" cy="939" rx="19.73" ry="51.67" transform="translate(-439.22 238.8) rotate(-30)"/><ellipse class="cls-4" cx="226" cy="939" rx="51.67" ry="19.73" transform="translate(-700.2 665.22) rotate(-60)"/><rect class="cls-1" x="1241" y="352" width="170" height="170" rx="35.51"/><rect class="cls-5" x="1283.73" y="394.73" width="84.53" height="84.53" rx="10.78"/><path d="M1340.61,460.69c1.7,2.78,3.91,4.82,7.83,4.82,3.28,0,5.38-1.65,5.38-3.92,0-2.72-2.15-3.68-5.77-5.26l-2-.85c-5.72-2.44-9.53-5.5-9.53-12,0-5.95,4.54-10.48,11.62-10.48,5,0,8.67,1.76,11.29,6.35l-6.18,4c-1.36-2.44-2.83-3.4-5.11-3.4s-3.79,1.47-3.79,3.4c0,2.38,1.47,3.34,4.88,4.82l2,.85c6.74,2.89,10.55,5.84,10.55,12.46,0,7.14-5.62,11.06-13.15,11.06-7.37,0-12.13-3.51-14.46-8.12Zm-27.74.77c1.23,2.21,2.35,4.08,5,4.08s4.19-1,4.19-5v-27h7.82v27.09c0,8.21-4.75,11.95-11.68,11.95-6.25,0-9.88-3.29-11.72-7.25Z"/><rect class="cls-1" x="597" y="336.36" width="528" height="338.29" rx="52.98"/><g id="Layer_1-2" data-name="Layer 1-2"><path class="cls-6" d="M1065.32,444.66v19.52A90.07,90.07,0,0,0,1044,433.36a13.49,13.49,0,0,1,7.61-2.32,13.65,13.65,0,0,1,13.64,13.64Z"/><path class="cls-6" d="M1055.52,550.78a14.2,14.2,0,0,1-5.88,20.94,94.38,94.38,0,0,1-77.36,0,14.19,14.19,0,0,1-5.87-20.94h0a14.1,14.1,0,0,1,17.45-4.94,65.92,65.92,0,0,0,54.21,0,14.14,14.14,0,0,1,17.45,4.94Z"/><path class="cls-6" d="M1065.32,481.38v4.21c0-1.11,0-2.21-.12-3.3A3.91,3.91,0,0,0,1065.32,481.38Z"/><path class="cls-6" d="M1033.88,436.07a8.14,8.14,0,0,0,1.55.75C1034.92,436.55,1034.42,436.3,1033.88,436.07Z"/><path class="cls-6" d="M1065.42,482.29a54.39,54.39,0,0,0-22.55-41c-1.11-.84-2.25-1.59-3.41-2.3a38.55,38.55,0,0,0-4-2.23,8.76,8.76,0,0,1-1.55-.75s-.05-.05-.09-.05a.88.88,0,0,0-.3-.13,53.92,53.92,0,0,0-22.55-4.88,54.58,54.58,0,1,0,54.58,54.58c0-1.12,0-2.21-.12-3.3ZM1011,512.88a27.28,27.28,0,1,1,27.27-27.29A27.28,27.28,0,0,1,1011,512.88Z"/><path class="cls-7" d="M871.35,455.25a6.78,6.78,0,0,1,2.81-10,44.84,44.84,0,0,1,36.85,0,6.77,6.77,0,0,1,2.8,10h0a6.74,6.74,0,0,1-8.31,2.37,31.39,31.39,0,0,0-25.83,0,6.75,6.75,0,0,1-8.32-2.37Z"/><path class="cls-7" d="M868.35,501.38c.79-.87,1.82-2.19.64-4.13-.78-1.27,3.41-.41,3.39-.36s-.3,4.69-.3,4.69l-3.76-.18Z"/><path class="cls-7" d="M892.8,499.34v12.89H871.5a4.49,4.49,0,0,1-4.49-4.49v-3.91a4.49,4.49,0,0,1,4.49-4.49Z"/><path class="cls-7" d="M882,512.25A28,28,0,0,1,869,501.08a3,3,0,0,0,.38-3.8c-.77-1.27,3.39-.41,3.37-.36s-.09,1.29-.16,2.49a4.83,4.83,0,0,1,.86-.07h14a13.71,13.71,0,0,0,5.39,1.06v11.83H882.05Z"/><path class="cls-7" d="M905.8,486.44h13a26,26,0,0,0-26-26v13A13,13,0,0,1,905.8,486.44Z"/><path class="cls-7" d="M918.81,486.44a26,26,0,1,1-26-26v13a13,13,0,1,0,13,13Z"/><path class="cls-7" d="M836.25,501.38c-.79-.87-1.82-2.19-.63-4.13.77-1.27-3.42-.41-3.4-.36s.3,4.69.3,4.69l3.76-.18Z"/><path class="cls-7" d="M838.15,503.83v3.91a4.48,4.48,0,0,1-4.48,4.49h-21.3V499.34h21.3A4.48,4.48,0,0,1,838.15,503.83Z"/><path class="cls-7" d="M822.52,512.25a28.11,28.11,0,0,0,13.08-11.17,2.94,2.94,0,0,1-.39-3.8c.77-1.27-3.39-.41-3.37-.36s.09,1.29.16,2.49a4.83,4.83,0,0,0-.86-.07h-14a13.71,13.71,0,0,1-5.39,1.06v11.83H822.5Z"/><path class="cls-7" d="M787.76,501.38c.8-.87,1.82-2.19.64-4.13-.78-1.27,3.41-.41,3.39-.36s-.3,4.69-.3,4.69l-3.75-.18Z"/><path class="cls-7" d="M811.75,499.34v12.89H790.46a4.49,4.49,0,0,1-4.49-4.49v-3.91a4.49,4.49,0,0,1,4.49-4.49Z"/><path class="cls-7" d="M801,512.25a28.11,28.11,0,0,1-13.08-11.17,2.94,2.94,0,0,0,.39-3.8c-.77-1.27,3.39-.41,3.37-.36s-.09,1.29-.16,2.49a4.83,4.83,0,0,1,.86-.07h14a13.7,13.7,0,0,0,5.38,1.06v11.83H801Z"/><path class="cls-7" d="M824.76,486.44h13a26,26,0,0,0-26-26v13A13,13,0,0,1,824.76,486.44Z"/><path class="cls-7" d="M837.77,486.44a26,26,0,1,1-26-26v13a13,13,0,1,0,13,13Z"/><path class="cls-7" d="M665.83,501.38c.79-.87,1.82-2.19.63-4.13-.77-1.27,3.42-.41,3.4-.36s-.3,4.69-.3,4.69l-3.76-.18Z"/><path class="cls-7" d="M690.19,499.34v12.89h-21.3a4.48,4.48,0,0,1-4.48-4.49v-3.91a4.48,4.48,0,0,1,4.48-4.49Z"/><path class="cls-7" d="M679.14,512.25a28.66,28.66,0,0,1-13.42-11.17,2.91,2.91,0,0,0,.4-3.8c-.79-1.27,3.48-.41,3.46-.36s-.1,1.29-.17,2.49a5.1,5.1,0,0,1,.89-.07h14.37a14.36,14.36,0,0,0,5.52,1.06v11.83H679.14Z"/><path class="cls-7" d="M703.2,486.44h13a26,26,0,0,0-26-26v13A13,13,0,0,1,703.2,486.44Z"/><path class="cls-7" d="M716.18,486.44a26,26,0,1,1-26-26v13a13,13,0,1,0,13,13h13Z"/><rect class="cls-7" x="845.52" y="461.89" width="12.89" height="50.34" rx="6.45"/><path class="cls-7" d="M766,510.56c-.86-.8-2.18-1.83-4.12-.64-1.28.77-.41-3.42-.36-3.39s4.69.29,4.69.29l-.18,3.76Z"/><path class="cls-7" d="M770.3,523.9h0a6.46,6.46,0,0,1-6.43-6.5V497.91l12.89-11.58V517.4a6.47,6.47,0,0,1-6.44,6.5Z"/><path class="cls-7" d="M776.78,497.29a28.27,28.27,0,0,1-11.17,13.16,2.93,2.93,0,0,0-3.8-.38c-1.27.77-.41-3.42-.36-3.4l2.48.16a6,6,0,0,1-.06-.86v-14.1a13.94,13.94,0,0,0,1.06-5.43h11.83v10.82Z"/><path class="cls-7" d="M738,486.44H725a26,26,0,0,1,26-26v13A13,13,0,0,0,738,486.44Z"/><path class="cls-7" d="M725,486.44a26,26,0,1,0,26-26v13a13,13,0,1,1-13,13Z"/><path class="cls-8" d="M674.84,565c-5.47,0-9.26-1.46-11.3-4.37s-3.06-7.57-3.06-13.92,1.09-11,3.22-13.74,5.76-4.21,10.86-4.21A55.41,55.41,0,0,1,685,529.83l1.85.35-.21,5.52a99.73,99.73,0,0,0-10.13-.68q-3.94,0-5.54.94a5.72,5.72,0,0,0-2.35,3.43,33.57,33.57,0,0,0-.75,8.56c0,4,.49,6.86,1.48,8.48s3.05,2.42,6.2,2.42l4.25-.21v-7.12h-3.07v-6.14h9.83V563a78.17,78.17,0,0,1-11.67,1.14Z"/><path class="cls-8" d="M692.65,563.78v-35h6.75V540a13.29,13.29,0,0,1,6.09-1.78c3.29,0,5.56,1,6.79,2.94s1.86,5,1.86,9.09V563.8h-6.76V550.41a11.06,11.06,0,0,0-.75-4.65c-.52-1-1.56-1.52-3.12-1.52a14,14,0,0,0-4,.59l-.68.2V563.8h-6.14Z"/><path class="cls-8" d="M726.21,564.52c-5.19,0-7.8-2.75-7.8-8.22,0-2.68.71-4.58,2.15-5.7s3.66-1.79,6.64-2l5.35-.41v-1.56a2.77,2.77,0,0,0-.68-2.15,3.53,3.53,0,0,0-2.29-.6l-9.43.41-.21-4.67a39.69,39.69,0,0,1,10.23-1.44c3.23,0,5.54.67,7,2s2.15,3.48,2.15,6.43V557.1a4.34,4.34,0,0,0,.39,1.69,1.84,1.84,0,0,0,1.26.69l-.21,5a19.57,19.57,0,0,1-4.1-.35,9.12,9.12,0,0,1-3.09-1.37A17,17,0,0,1,726.21,564.52Zm1.47-5.49a16.83,16.83,0,0,0,4.12-.59l.75-.21v-5.35l-4.53.41a2.71,2.71,0,0,0-2.82,3C725.2,558.09,726,559,727.68,559Z"/><path class="cls-8" d="M746.06,563.8v-35h6.76v35Z"/><path class="cls-8" d="M764.89,564.52c-5.19,0-7.8-2.75-7.8-8.22,0-2.68.71-4.58,2.15-5.7s3.66-1.79,6.64-2l5.35-.41v-1.56a2.81,2.81,0,0,0-.68-2.15,3.53,3.53,0,0,0-2.29-.6l-9.43.41-.21-4.67a39.63,39.63,0,0,1,10.23-1.44c3.23,0,5.54.67,7,2s2.15,3.48,2.15,6.43V557.1a4.34,4.34,0,0,0,.39,1.69,1.87,1.87,0,0,0,1.26.69l-.21,5a19.57,19.57,0,0,1-4.1-.35,9.12,9.12,0,0,1-3.09-1.37A17,17,0,0,1,764.89,564.52ZM767,559a16.9,16.9,0,0,0,4.13-.59l.75-.21v-5.35l-4.54.41a2.7,2.7,0,0,0-2.82,3C764.49,558.09,765.31,559,767,559Z"/><path class="cls-8" d="M784.74,563.83v-25.2h6.75v1.42a12.58,12.58,0,0,1,5.91-2,8.18,8.18,0,0,1,6.3,2.37,19,19,0,0,1,8.43-2.37c3.32,0,5.61,1,6.91,2.9s1.92,5,1.92,9.23V563.8h-6.75V550.48a12.2,12.2,0,0,0-.69-4.74,2.75,2.75,0,0,0-2.83-1.53,14.26,14.26,0,0,0-3.91.69l-.76.27q.21,3.76.21,5.67v13h-6.75V551a14.45,14.45,0,0,0-.67-5.22c-.43-1-1.39-1.53-2.86-1.53a11.4,11.4,0,0,0-3.86.69l-.6.2v18.7h-6.75Z"/><path class="cls-8" d="M825.27,551.31q0-6.19,2.65-9.62c1.75-2.27,4.71-3.39,8.83-3.39s7.09,1.14,8.84,3.42,2.64,5.49,2.64,9.61q0,13.13-11.5,13.12t-11.5-13.12Zm7.84,5.65a4.66,4.66,0,0,0,7.36,0,16.35,16.35,0,0,0,0-11.26A3.89,3.89,0,0,0,836.8,544a4,4,0,0,0-3.69,1.75,11.6,11.6,0,0,0-1,5.61A11.92,11.92,0,0,0,833.11,557Z"/><path class="cls-8" d="M851.88,551.31c0-4.13.89-7.34,2.64-9.62s4.72-3.39,8.84-3.39,7.08,1.14,8.84,3.42,2.64,5.49,2.64,9.61q0,13.13-11.5,13.12t-11.51-13.12Zm7.83,5.65a3.89,3.89,0,0,0,3.69,1.8,3.84,3.84,0,0,0,3.67-1.8,16.35,16.35,0,0,0,0-11.26A3.88,3.88,0,0,0,863.4,544a4,4,0,0,0-3.69,1.75,11.62,11.62,0,0,0-1,5.61A11.94,11.94,0,0,0,859.71,557Z"/><path class="cls-8" d="M879.9,563.83v-25.2h6.76v1.42a12.45,12.45,0,0,1,5.9-2,8.18,8.18,0,0,1,6.3,2.37,19.09,19.09,0,0,1,8.43-2.37c3.32,0,5.61,1,6.91,2.9s1.93,5,1.93,9.23V563.8h-6.76V550.48a12.43,12.43,0,0,0-.68-4.74,2.77,2.77,0,0,0-2.84-1.53,14.32,14.32,0,0,0-3.91.69l-.75.27c.13,2.51.2,4.4.2,5.67v13h-6.75V551a14.74,14.74,0,0,0-.66-5.22,2.77,2.77,0,0,0-2.86-1.53,11.46,11.46,0,0,0-3.87.69l-.59.2v18.7H879.9Z"/></g><rect class="cls-1" x="117" y="77" width="310" height="310" rx="64.76"/><path class="cls-9" d="M267.55,180.24c-30.35,1-39.37,22.64-41.44,34.39,2.7-4.36,11.18-13.91,23.68-13.91,14.57,0,25.65,16.26,32.42,21.33,8.22,6.17,24.74,14.31,46.42,7.71,17.29-5.26,25.31-23.62,27.06-32.33-8.36,11.37-21.05,18.2-36.74,10.15C308.15,202,300.06,179.2,267.55,180.24Z"/><path class="cls-9" d="M224.61,231.82c-30.35,1-39.37,22.65-41.44,34.4,2.69-4.36,11.18-13.91,23.68-13.91,14.56,0,25.65,16.26,32.42,21.33,8.22,6.16,24.73,14.3,46.42,7.71C303,276.08,311,257.73,312.75,249c-8.36,11.37-21.05,18.2-36.74,10.15C265.2,253.62,257.12,230.79,224.61,231.82Z"/><rect class="cls-1" x="346" y="548" width="174" height="174" rx="36.35"/><path class="cls-10" d="M456.77,596.43a45.31,45.31,0,0,1-39.3,81.14l-.52-.2.85-.27,1.08-.35.53-.18h0l.53-.18L421,676l1-.36,1-.37,1-.36.48-.19,1-.37q1.51-.6,2.94-1.2l.71-.31.86-.38,1.12-.51.55-.26.8-.39.4-.2h0l.39-.2.77-.39c6.44-3.39,10.82-7.06,13.15-11.09,4.92-8.53.62-17.64-11.73-26.94l-1-.75-.61-.47-.6-.47-.57-.46-.56-.45-.27-.23h0l-.27-.23L431,629l-.38-.33h0l-.37-.34-.48-.44-.46-.44-.45-.43-.21-.22h0l-.21-.21-.41-.43c-4.88-5.19-6-9.64-3.76-13.47a18.46,18.46,0,0,1,5.86-5.75l.34-.22.53-.35.74-.45.38-.23.59-.34.61-.33.46-.25h0l.48-.26.65-.33,1.53-.75.54-.24.72-.33.37-.17.75-.32.39-.17.78-.32.4-.16.8-.32.42-.16.83-.32.86-.32.43-.16.88-.32.9-.31.92-.31.47-.16.95-.31,1-.31,1-.3,1-.31,1-.3,1.3-.38,1.33-.37,1.63-.45ZM433,589.7a45.19,45.19,0,0,1,15.67,2.78l.52.2-.33.1-1.61.5-.53.16-1,.34-1,.34-1,.34-1,.34-1,.35-.48.18-1.17.43-1.14.45-.89.36-.44.18-.86.36c-8.81,3.75-14.58,8-17.34,12.74-4.82,8.35-.45,17.35,11.9,26.64l1,.76.61.46.59.47.29.23.56.46.42.34h0l.4.34.52.46.25.22.5.45.79.74.37.36.54.55.51.54c4.86,5.22,5.9,9.75,3.59,13.75-1.49,2.59-4.35,5.14-8.55,7.61l-.39.23-.62.35-.65.36-1.11.58-.58.3-.71.35-.73.34-.74.35-.38.17-.78.35-.79.34-.81.35-.42.17-.84.34-.42.17h0l-.44.17-.87.34-.9.33-.91.34-.93.33-1,.34-.48.16-1,.33-.49.17-1,.32-1,.33-1.3.41-1.34.4-1.09.32-1.52.44a45.3,45.3,0,0,1,23.54-84Z"/><rect class="cls-1" x="964" y="785" width="230" height="230" rx="48.05"/><path class="cls-11" d="M1039.31,887.59l6.79,8.72,6.78-8.72h5.77l-9.74,12.47,9.43,12.15h-5.77l-6.47-8.37-6.43,8.37h-5.86l9.47-12.15-9.78-12.47Zm74.79,24.85a13.35,13.35,0,0,1-5.3-1,12.74,12.74,0,0,1-6.75-6.89,12,12,0,0,1-.93-4.63,11.82,11.82,0,0,1,1-4.68,12.54,12.54,0,0,1,2.74-4,13.1,13.1,0,0,1,4.15-2.78,13.25,13.25,0,0,1,5.2-1,12.53,12.53,0,0,1,5.3,1.1,12.25,12.25,0,0,1,4.06,2.87,12.68,12.68,0,0,1,2.65,4,11.9,11.9,0,0,1,.92,4.59,11.65,11.65,0,0,1-1,4.68,12.9,12.9,0,0,1-6.84,6.71,13.21,13.21,0,0,1-5.2,1ZM1106.51,900a8.31,8.31,0,0,0,.92,3.79,7.74,7.74,0,0,0,2.61,2.87,7.45,7.45,0,0,0,4.1,1.1,7,7,0,0,0,4.1-1.15,7.86,7.86,0,0,0,2.56-3,8.36,8.36,0,0,0,.89-3.71,8,8,0,0,0-.93-3.75,7.44,7.44,0,0,0-6.66-3.93,7.35,7.35,0,0,0-4.15,1.15,7.64,7.64,0,0,0-2.56,2.91,8.07,8.07,0,0,0-.88,3.67Zm-113.9,12.25,10.74-24.62h4.36l10.7,24.62h-5.74l-2.43-5.68h-9.41l-2.43,5.68ZM1005.56,894l-3.62,7.77h7.1Zm72.93-3.58-6.82,5.19h4.46v16.89l2.36-1.78Zm1.42,19,7-5.33h-4.59v-16.5l-2.37,1.53Zm80.63-15.93a9.87,9.87,0,0,1,1.59,1l2.29-4.37a20.9,20.9,0,0,0-4.15-1.9,15.43,15.43,0,0,0-5.16-.84,13.3,13.3,0,0,0-4.9.89,8.07,8.07,0,0,0-3.53,2.6,7,7,0,0,0-1.28,4.28,5.5,5.5,0,0,0,1.81,4.41,14.9,14.9,0,0,0,5.65,2.47q3,.79,4.9,1.46c1.26.41,1.9,1.1,1.9,2.07,0,1.45-1.36,2.17-4.06,2.17a14.85,14.85,0,0,1-3.84-.49,15.65,15.65,0,0,1-3.18-1.19,8.39,8.39,0,0,1-1.9-1.28l-2.38,4.63a19.92,19.92,0,0,0,5.25,2.3,21.72,21.72,0,0,0,6,.84,16.15,16.15,0,0,0,4.85-.71,7.8,7.8,0,0,0,3.62-2.38,6.64,6.64,0,0,0,1.41-4.42,5.7,5.7,0,0,0-1.06-3.61,6.72,6.72,0,0,0-2.95-2.25,28.86,28.86,0,0,0-4.5-1.5,43.91,43.91,0,0,1-4.51-1.28,2,2,0,0,1-1.5-1.95c0-1.56,1.39-2.33,4.15-2.33a10.09,10.09,0,0,1,3,.44,11.33,11.33,0,0,1,2.52,1Z"/><path class="cls-11" d="M1038.63,886.55l6.79,8.72,6.78-8.72H1058L1048.23,899l9.43,12.15h-5.77l-6.47-8.37-6.43,8.37h-5.86L1042.6,899l-9.78-12.47Zm74.79,24.85a13.35,13.35,0,0,1-5.3-1,12.74,12.74,0,0,1-6.75-6.89,12,12,0,0,1-.93-4.63,11.82,11.82,0,0,1,1-4.68,12.54,12.54,0,0,1,2.74-4,13.1,13.1,0,0,1,4.15-2.78,13.25,13.25,0,0,1,5.2-1,12.53,12.53,0,0,1,5.3,1.1,12.25,12.25,0,0,1,4.06,2.87,12.68,12.68,0,0,1,2.65,4,11.9,11.9,0,0,1,.92,4.59,11.65,11.65,0,0,1-1,4.68,12.9,12.9,0,0,1-6.84,6.71,13.21,13.21,0,0,1-5.2,1Zm-7.59-12.48a8.31,8.31,0,0,0,.92,3.79,7.74,7.74,0,0,0,2.61,2.87,7.45,7.45,0,0,0,4.1,1.1,7,7,0,0,0,4.1-1.15,7.86,7.86,0,0,0,2.56-2.95,8.36,8.36,0,0,0,.89-3.71,8,8,0,0,0-.93-3.75,7.44,7.44,0,0,0-6.66-3.93,7.35,7.35,0,0,0-4.15,1.15,7.64,7.64,0,0,0-2.56,2.91,8.07,8.07,0,0,0-.88,3.67Zm-113.9,12.25,10.74-24.62H1007l10.7,24.62H1012l-2.43-5.68h-9.41l-2.43,5.68Zm13-18.18-3.62,7.77h7.1Zm72.93-3.58L1071,894.6h4.46v16.89l2.36-1.78Zm1.42,19,7-5.33h-4.59v-16.5l-2.37,1.53Zm80.63-15.93a9.87,9.87,0,0,1,1.59,1l2.29-4.37a20.9,20.9,0,0,0-4.15-1.9,15.43,15.43,0,0,0-5.16-.84,13.3,13.3,0,0,0-4.9.89,8.07,8.07,0,0,0-3.53,2.6,7,7,0,0,0-1.28,4.28,5.5,5.5,0,0,0,1.81,4.41,14.9,14.9,0,0,0,5.65,2.47q3,.79,4.9,1.46c1.26.41,1.9,1.1,1.9,2.07,0,1.45-1.36,2.17-4.06,2.17a14.85,14.85,0,0,1-3.84-.49,15.65,15.65,0,0,1-3.18-1.19,8.39,8.39,0,0,1-1.9-1.28l-2.38,4.63a19.92,19.92,0,0,0,5.25,2.3,21.72,21.72,0,0,0,6,.84,16.15,16.15,0,0,0,4.85-.71,7.8,7.8,0,0,0,3.62-2.38,6.64,6.64,0,0,0,1.41-4.42,5.7,5.7,0,0,0-1.06-3.61,6.72,6.72,0,0,0-3-2.25,28.86,28.86,0,0,0-4.5-1.5,43.91,43.91,0,0,1-4.51-1.28,2,2,0,0,1-1.5-1.95c0-1.56,1.39-2.33,4.15-2.33a10.09,10.09,0,0,1,3,.44,11.33,11.33,0,0,1,2.52,1Z"/><rect class="cls-1" x="1647.36" y="57.72" width="283.28" height="283.28" rx="59.18"/><path class="cls-12" d="M1683.82,195.79l-6.51,3.76h-7.78l14.29-8.74Zm0,7.5v5l-14.29-8.76h7.78Z"/><path class="cls-12" d="M1705,179l-14.42,40.64h-4.16L1700.81,179Z"/><path class="cls-12" d="M1718.75,213.78V182.69h4.36v31.09Zm1.91-13.14V196.5h10.59a3.87,3.87,0,0,0,3.06-1.33,5.92,5.92,0,0,0,0-7,3.87,3.87,0,0,0-3.06-1.32h-10.59v-4.15h10.42a9.61,9.61,0,0,1,4.74,1.13A7.87,7.87,0,0,1,1739,187a9.58,9.58,0,0,1,1.12,4.72,9.44,9.44,0,0,1-1.14,4.71,8,8,0,0,1-3.15,3.14,9.54,9.54,0,0,1-4.73,1.12Zm15.57,13.14-7.11-14.1,4.33-1,8,15.08Z"/><path class="cls-12" d="M1755.07,214.1q-4.63,0-7.17-2.58t-2.55-7.35v-2.5c0-3.31.82-5.86,2.45-7.67a8.8,8.8,0,0,1,6.89-2.72,7.62,7.62,0,0,1,6.48,3.08q2.3,3.07,2.3,8.63v1.45h-15v-3.5h10.82a7.55,7.55,0,0,0-1.4-4.21,4,4,0,0,0-3.24-1.52,4.76,4.76,0,0,0-3.83,1.63,6.93,6.93,0,0,0-1.36,4.59v2.82a5.76,5.76,0,0,0,1.46,4.23,5.56,5.56,0,0,0,4.11,1.48,6.8,6.8,0,0,0,2.63-.54,7.42,7.42,0,0,0,2.33-1.49l2.86,2.86a12.19,12.19,0,0,1-3.69,2.45A10.69,10.69,0,0,1,1755.07,214.1Z"/><path class="cls-12" d="M1778.4,214.1a9.54,9.54,0,0,1-7.08-2.52q-2.5-2.52-2.51-7.12v-3.65a9.49,9.49,0,0,1,2.51-7q2.51-2.49,7.08-2.49a11.59,11.59,0,0,1,4.7.92,8,8,0,0,1,3.34,2.63l-3.14,2.82a6.5,6.5,0,0,0-2.18-1.65,6.38,6.38,0,0,0-2.65-.57,5.23,5.23,0,0,0-3.91,1.41,5.39,5.39,0,0,0-1.39,4v3.65a5.56,5.56,0,0,0,1.39,4.06,5.17,5.17,0,0,0,3.91,1.44,6,6,0,0,0,2.65-.62,6.57,6.57,0,0,0,2.18-1.76l3.14,3a8,8,0,0,1-3.35,2.57A11.61,11.61,0,0,1,1778.4,214.1Z"/><path class="cls-12" d="M1791.24,213.78V182.72h4.36v31.06Zm13.46,0V200.34a5.1,5.1,0,0,0-1.2-3.63,4.51,4.51,0,0,0-3.43-1.28,4.57,4.57,0,0,0-3.3,1.11,4.13,4.13,0,0,0-1.17,3.14l-.45-4.27a8,8,0,0,1,2.68-3,6.6,6.6,0,0,1,3.67-1.08,6.88,6.88,0,0,1,5.58,2.36,10.12,10.12,0,0,1,2,6.68v13.46Z"/><path class="cls-12" d="M1822.78,214.1q-4.08,0-6.12-1.69a6.32,6.32,0,0,1-2-5.17,6.22,6.22,0,0,1,1.86-4.94,8.33,8.33,0,0,1,5.61-1.64h6.31l.3,3.51h-6.58a3.77,3.77,0,0,0-2.55.75,3,3,0,0,0-.85,2.32,2.85,2.85,0,0,0,1.13,2.5,5.84,5.84,0,0,0,3.4.81A9.74,9.74,0,0,0,1827,210a1.76,1.76,0,0,0,1.24-1.67l.45,3.12a5,5,0,0,1-1.43,1.48,6.39,6.39,0,0,1-2,.86A10,10,0,0,1,1822.78,214.1Zm5.42-.32V199.72a4.64,4.64,0,0,0-1.16-3.38,4.36,4.36,0,0,0-3.3-1.21,8.78,8.78,0,0,0-2.58.39,7.71,7.71,0,0,0-2.27,1.15l-3.18-2.18a8.26,8.26,0,0,1,3.32-2.36,11.83,11.83,0,0,1,4.58-.85,9,9,0,0,1,6.45,2.16,8,8,0,0,1,2.29,6.09v14.25Z"/><path class="cls-12" d="M1839,213.78V191.6h4.36v22.18Zm12.2-16.92a3.62,3.62,0,0,0-1.45-1.07,5.33,5.33,0,0,0-2-.36,4.36,4.36,0,0,0-3.22,1.14,4.29,4.29,0,0,0-1.14,3.17l-.45-4.27a8.07,8.07,0,0,1,2.64-3.08,6.27,6.27,0,0,1,3.6-1.11,8.22,8.22,0,0,1,2.75.44A6.13,6.13,0,0,1,1854,193Z"/><path class="cls-12" d="M1855.93,195.53V191.6h10v3.93Zm7.48,18.36a4.81,4.81,0,0,1-4-1.52,6.76,6.76,0,0,1-1.23-4.36V185.15h4.36v22.9a2.13,2.13,0,0,0,.32,1.24,1.08,1.08,0,0,0,.94.45h2.09v4.15Z"/><path class="cls-12" d="M1879.76,214.1a15.94,15.94,0,0,1-5.36-.86,12.9,12.9,0,0,1-4.3-2.6l2.58-3.18a15.34,15.34,0,0,0,3.58,2,9.75,9.75,0,0,0,3.5.68,7.5,7.5,0,0,0,3.87-.8,2.63,2.63,0,0,0,1.3-2.4,1.88,1.88,0,0,0-.87-1.76,5.81,5.81,0,0,0-2.26-.67c-.94-.11-1.94-.19-3-.27q-1.33-.1-2.67-.33a7.88,7.88,0,0,1-2.41-.81,4.29,4.29,0,0,1-1.74-1.74,6.24,6.24,0,0,1-.65-3.1,6.37,6.37,0,0,1,2.16-5.27c1.43-1.17,3.58-1.76,6.43-1.76a16.15,16.15,0,0,1,4.85.71,14.21,14.21,0,0,1,4.2,2.16l-2.62,3.18a14.75,14.75,0,0,0-3.28-1.6,9.93,9.93,0,0,0-3.15-.54,6,6,0,0,0-3.34.76,2.59,2.59,0,0,0-1.11,2.28,1.53,1.53,0,0,0,.77,1.44,5.1,5.1,0,0,0,2,.56c.84.09,1.75.17,2.71.24s1.87.16,2.81.31a8.41,8.41,0,0,1,2.62.86,4.83,4.83,0,0,1,1.92,1.91,6.82,6.82,0,0,1,.73,3.44,6.3,6.3,0,0,1-2.32,5.34C1885.19,213.51,1882.86,214.1,1879.76,214.1Z"/><path class="cls-12" d="M1894.18,195.79v-5l14.29,8.74h-7.78Zm0,7.5,6.51-3.74h7.78l-14.29,8.76Z"/><rect class="cls-1" x="937" y="84" width="148" height="148" rx="30.92"/><path class="cls-13" d="M1035.86,148.84c-2.57-.81-3.89-.54-6.58-.83-4.16-.46-5.82-2.08-6.52-6.26-.39-2.34.07-5.76-.93-7.87-1.92-4-6.42-5.85-10.93-4.82a9.71,9.71,0,0,0-7.16,8.6,9.27,9.27,0,0,0,6.71,9.58,29.92,29.92,0,0,0,6.45,1.1c4,.29,4.28,2.5,5.35,4.32.68,1.15,1.34,2.28,1.34,5.7s-.66,4.54-1.34,5.69c-1.07,1.81-2.4,3-6.37,3.3a29.81,29.81,0,0,0-6.45,1.1,9.27,9.27,0,0,0-6.71,9.59,9.7,9.7,0,0,0,7.16,8.59c4.51,1,9-.78,10.93-4.81a26,26,0,0,0,2-6.85c.71-4.19,2.36-5.81,6.52-6.27,2.69-.29,5.47,0,8-1.43,2.67-1.94,5-4.87,5-8.91S1039.75,150.06,1035.86,148.84Z"/><path class="cls-14" d="M993.19,167.84a9.54,9.54,0,1,1,9.52-9.53A9.54,9.54,0,0,1,993.19,167.84Z"/><path class="cls-14" d="M975.66,187.22a9.54,9.54,0,1,1,9.55-9.5A9.55,9.55,0,0,1,975.66,187.22Z"/><path class="cls-14" d="M1046.38,187.22a9.54,9.54,0,1,1,9.45-9.6A9.55,9.55,0,0,1,1046.38,187.22Z"/><rect class="cls-1" x="1549" y="750" width="180" height="180" rx="37.6"/><path class="cls-15" d="M1688.18,835.42l-44.65-44.6a6.58,6.58,0,0,0-9.31,0l-9.26,9.27,11.76,11.75a7.82,7.82,0,0,1,9.9,10L1658,833.13a7.83,7.83,0,1,1-4.69,4.42L1642.58,827V854.8a6.88,6.88,0,0,1,2.19,1.48,7.83,7.83,0,1,1-11.08,0,7.14,7.14,0,0,1,2.75-1.71V826.5a6.89,6.89,0,0,1-2.75-1.7,7.84,7.84,0,0,1-1.69-8.57l-11.6-11.58-30.59,30.61a6.58,6.58,0,0,0,0,9.31l44.65,44.61a6.58,6.58,0,0,0,9.31,0l44.41-44.44A6.6,6.6,0,0,0,1688.18,835.42Z"/></svg>